<svg xmlns="http://www.w3.org/2000/svg" xml:space="preserve" width="453.977" height="164.581" viewBox="0 0 120.115 43.545"><g style="fill:#f98c13;fill-opacity:1" transform="translate(-16.639 -37.189)"><path d="M112.766 48.655v6.532l7.445.045 7.445.045-1.17 1.421c-1.243 1.508-4.267 5.168-10.184 12.324l-3.622 4.382V76.6c0 1.758.052 3.249.116 3.313.063.063 5.459.096 11.99.071l11.873-.044.047-3.309.047-3.309h-7.481c-4.115 0-7.481-.04-7.481-.09 0-.049.566-.765 1.258-1.59.99-1.179 9.335-11.233 13.04-15.71l.664-.802-.047-3.237-.046-3.238h-11.947zm.258 6.256c.01.007.022.012.034.018h-.034zm.115 24.655.009.004-.01-.001v-.003zM33.25 47.416c-3.288.04-6.629.962-9.275 2.754-12.157 8.236-8.522 26.943 5.867 30.19 3.857.87 8.458.113 11.897-1.957l.957-.577.05 1.057.052 1.057h7.048l.043-15.772.044-15.77h-7.221v1.912l-.514-.365c-2.43-1.73-5.662-2.57-8.949-2.53zm.086 7.258c2.851-.018 5.74 1.246 7.689 4.092 3.841 5.611.493 13.42-6.234 14.54-1.126.187-1.822.21-2.479.08a905.3 905.3 0 0 1-1.29-.255c-3.999-.797-7.107-4.777-7.097-9.091.012-5.75 4.659-9.337 9.411-9.366zm32.942-17.426c-2.362 0-2.62.063-2.726.274-.116.232-.155 4.918-.051 6.19.013.16.588.216 2.252.216h2.234v17.935c0 9.864.053 17.987.118 18.052.065.065 1.67.097 3.567.072l3.449-.047V37.31l-5.708-.045c-1.327-.01-2.348-.018-3.135-.017z" style="opacity:1;fill:#f98c13;fill-opacity:1;stroke-width:.171896"/><path d="M98.688 37.224c-4.41 0-4.13-.061-4.98 1.09l-6.045 8.106c-3.103 4.16-6.066 8.183-6.584 8.94-6.764 9.88-1.85 22.477 9.79 25.097 2.956.665 7.536.096 10.454-1.299 14.57-6.966 10.99-28.301-5.084-30.287l-1.744-.216 3-3.868c5.165-6.66 5.433-7.025 5.327-7.301-.086-.224-.681-.262-4.134-.262zm3.835.43h.01l-.006.009-.004-.01zm-8.206 17.915c3.1.007 6.202 1.632 7.81 4.975 2.456 5.106.237 11.002-4.877 12.96-7 2.682-13.732-4.408-11.272-11.87 1.32-4.002 4.827-6.073 8.34-6.065z" style="opacity:1;fill:#f98c13;fill-opacity:1;stroke-width:.171896"/><path d="m53.47 77.829.028 2.1.684.014h6.436l.044-15.772.044-15.771h-7.221v1.914c0 2.909-.015 26.57-.016 27.515z" style="fill:#f98c13;fill-opacity:1;stroke-width:.171893"/><circle cx="56.833" cy="41.815" r="4.626" style="opacity:1;fill:#f98c13;fill-opacity:1;stroke-width:1.89021;stroke-linecap:round"/></g></svg>